<svg width="150" height="150" viewBox="0 0 150 150" fill="none" xmlns="http://www.w3.org/2000/svg">
<path d="M75 149.929C116.421 149.929 150 116.366 150 74.9643C150 33.5626 116.421 0 75 0C33.5786 0 0 33.5626 0 74.9643C0 116.366 33.5786 149.929 75 149.929Z" fill="#BEB79D"/>
<path d="M11.8946 80.9648V61.0195L15.5982 57.9121V79.0137L18.5972 81.4888V70.5405L15.5982 68.0112L18.5972 65.5L22.3009 68.5713V78.4175L15.6344 84.0361H15.5982L11.8946 80.9648ZM26.3651 80.9648V71.1187L30.0687 68.0112V79.0137L33.0677 81.4888V70.5405L30.0687 68.0112L33.0677 65.5L36.7713 68.5713V78.4175L30.1048 84.0361H30.0687L26.3651 80.9648ZM43.13 61.9048L51.0431 68.5713V79.0859L45.1353 84.0361L44.3585 83.4038L40.6549 80.3325V71.1187L44.3585 68.0112L40.0948 64.4702L43.13 61.9048ZM47.3575 80.8564V70.5405L44.3585 68.0112V78.3813L47.3575 80.8564ZM53.8246 68.2461L57.0946 65.5L59.2264 67.3789V78.9233L62.1532 81.4165V68.4268L65.8568 65.3193V84L62.1532 87.0352V81.4888L59.2264 84.0361L55.5409 80.9648V69.6372L53.8246 68.2461ZM56.4261 87.3604L59.4613 84.813L62.1532 87.0352L59.0819 89.5464L56.4261 87.3604ZM78.0682 80.2241V70.7573L81.4467 67.939L84.2469 65.5L88.3119 68.8242L85.2948 71.3896L81.7719 68.4629V78.1826L84.9877 80.8926L87.1014 79.0859L87.6976 79.6279L85.5839 81.4165L82.621 84L78.0682 80.2241ZM90.7321 84.1807V60.9834L94.4357 57.9121V81.1455L90.7321 84.1807ZM94.4357 68.0112L97.4347 65.5L101.138 68.0112V81.1455L97.4347 84.1807V70.5405L94.4357 68.0112ZM105.203 80.9648V71.0825L108.798 68.0474L111.761 65.5L115.446 68.3906V79.7002L117.488 81.4526L114.832 84L111.833 81.4888L108.906 84.0361L105.203 80.9648ZM108.906 78.9233L111.761 81.3442V70.5767L108.906 68.1558V78.9233ZM119.149 60.9111L122.473 58.0928L125.743 60.7666L122.437 63.6211L119.149 60.9111ZM118.77 68.4268L122.401 65.3916L124.623 67.2705V79.4473L126.665 81.1455L123.25 84L121.028 82.1211L120.92 70.1973L118.77 68.4268ZM128.145 69.6372L131.849 66.4937L133.638 67.9751L136.582 65.5L140.286 68.6074V81.1455L136.582 84.1807V70.5405L134.071 68.3906L133.601 68.8242V81.1455L129.898 84.1807V71.0825L128.145 69.6372Z" fill="#341919"/>
</svg>
