<svg width="150" height="150" viewBox="0 0 150 150" fill="none" xmlns="http://www.w3.org/2000/svg">
<path d="M75 149.928C116.421 149.928 150 116.366 150 74.9642C150 33.5626 116.421 0 75 0C33.5786 0 0 33.5626 0 74.9642C0 116.366 33.5786 149.928 75 149.928Z" fill="#BEB79D"/>
<path d="M28.7562 68.9648V59.1187L32.4598 56.0112V67.0137L35.4588 69.4888V58.5405L32.4598 56.0112L35.4588 53.5L39.1624 56.5713V72L32.4959 77.5825L29.8402 75.3965L32.8573 72.8491L35.4588 75.0352V69.561L32.4959 72.0361H32.4598L28.7562 68.9648ZM43.4073 69.5249V48.9111L47.1109 45.8037V67.2666L49.7125 69.4526L46.7496 72.0361L45.9728 71.4038L43.4073 69.5249ZM51.9159 68.9648V59.0825L55.5111 56.0474L58.474 53.5L62.1595 56.3906V67.7002L64.201 69.4526L61.5453 72L58.5462 69.4888L55.6195 72.0361L51.9159 68.9648ZM55.6195 66.9233L58.474 69.3442V58.5767L55.6195 56.1558V66.9233ZM64.941 67.8628L69.4576 63.9424L66.9825 61.8647L66.567 61.5215V57.9443L71.8605 53.5L76.7745 57.4927L77.8224 56.6074L78.4547 57.0952L73.8297 61.124L77.0455 63.7437V67.3389L74.3717 69.5249L71.4088 72L66.2418 67.7905L65.5372 68.4048L64.941 67.8628ZM69.9816 59.8232L72.0773 61.6118L73.8297 60.0942L70.0177 56.9326L69.9816 59.8232ZM69.1144 65.2612L73.5948 68.8203V65.6045L71.0836 63.563L69.1144 65.2612ZM79.1947 67.8628L83.7113 63.9424L81.2362 61.8647L80.8207 61.5215V57.9443L86.1141 53.5L91.0282 57.4927L92.0761 56.6074L92.7084 57.0952L88.0834 61.124L91.2992 63.7437V67.3389L88.6254 69.5249L85.6625 72L80.4955 67.7905L79.7909 68.4048L79.1947 67.8628ZM84.2352 59.8232L86.3309 61.6118L88.0834 60.0942L84.2714 56.9326L84.2352 59.8232ZM83.368 65.2612L87.8485 68.8203V65.6045L85.3373 63.563L83.368 65.2612ZM94.3517 68.0796V58.4141L98.0553 55.3066L100.169 53.5L104.722 57.2397L98.0553 62.8584V66.0381L101.452 68.8926L103.71 66.9233L104.306 67.4834L102.048 69.4165L99.0851 72L94.3517 68.0796ZM98.0553 56.752V61.8647L101.09 59.3174L98.0553 56.752ZM105.245 67.8628L109.762 63.9424L107.287 61.8647L106.871 61.5215V57.9443L112.164 53.5L117.079 57.4927L118.126 56.6074L118.759 57.0952L114.134 61.124L117.35 63.7437V67.3389L114.676 69.5249L111.713 72L106.546 67.7905L105.841 68.4048L105.245 67.8628ZM110.286 59.8232L112.381 61.6118L114.134 60.0942L110.322 56.9326L110.286 59.8232ZM109.418 65.2612L113.899 68.8203V65.6045L111.388 63.563L109.418 65.2612ZM39.0533 99.2241V89.7573L42.4317 86.939L45.232 84.5L49.297 87.8242L46.2799 90.3896L42.7569 87.4629V97.1826L45.9728 99.8926L48.0865 98.0859L48.6827 98.6279L46.5689 100.417L43.6061 103L39.0533 99.2241ZM51.7171 103.181V79.9834L55.4208 76.9121V100.146L51.7171 103.181ZM55.4208 87.0112L58.4198 84.5L62.1234 87.0112V100.146L58.4198 103.181V89.5405L55.4208 87.0112ZM66.1876 99.9648V90.0825L69.7828 87.0474L72.7457 84.5L76.4313 87.3906V98.7002L78.4728 100.453L75.817 103L72.818 100.489L69.8912 103.036L66.1876 99.9648ZM69.8912 97.9233L72.7457 100.344V89.5767L69.8912 87.1558V97.9233ZM80.1342 79.9111L83.4584 77.0928L86.7284 79.7666L83.4222 82.6211L80.1342 79.9111ZM79.7548 87.4268L83.3861 84.3916L85.6083 86.2705V98.4473L87.6498 100.146L84.2352 103L82.0131 101.121L81.9047 89.1973L79.7548 87.4268ZM89.1305 88.6372L92.8341 85.4937L94.6227 86.9751L97.5675 84.5L101.271 87.6074V100.146L97.5675 103.181V89.5405L95.0563 87.3906L94.5866 87.8242V100.146L90.8829 103.181V90.0825L89.1305 88.6372ZM103.095 98.8628L107.612 94.9424L105.137 92.8647L104.721 92.5215V88.9443L110.015 84.5L114.929 88.4927L115.976 87.6074L116.609 88.0952L111.984 92.124L115.2 94.7437V98.3389L112.526 100.525L109.563 103L104.396 98.7905L103.691 99.4048L103.095 98.8628ZM108.136 90.8232L110.231 92.6118L111.984 91.0942L108.172 87.9326L108.136 90.8232ZM107.268 96.2612L111.749 99.8203V96.6045L109.238 94.563L107.268 96.2612Z" fill="#341919"/>
</svg>
