<svg width="150" height="150" viewBox="0 0 150 150" fill="none" xmlns="http://www.w3.org/2000/svg">
<path d="M75 149.928C116.421 149.928 150 116.366 150 74.9642C150 33.5626 116.421 0 75 0C33.5786 0 0 33.5626 0 74.9642C0 116.366 33.5786 149.928 75 149.928Z" fill="#BEB79D"/>
<path d="M28.7738 68.9648V49.0195L32.4774 45.9121V67.0137L35.4764 69.4888V58.5405L32.4774 56.0112L35.4764 53.5L39.18 56.5713V66.4175L32.5135 72.0361H32.4774L28.7738 68.9648ZM41.9435 57.6372L45.6471 54.4937L47.4356 56.0112L50.3805 53.5L53.235 55.8306L50.1998 58.3779L47.9054 56.4268L47.3995 56.8965V69.1455L43.6959 72.1807V59.0825L41.9435 57.6372ZM53.8124 68.9648V59.0825L57.4076 56.0474L60.3705 53.5L64.056 56.3906V67.7002L66.0975 69.4526L63.4418 72L60.4427 69.4888L57.516 72.0361L53.8124 68.9648ZM57.516 66.9233L60.3705 69.3442V58.5767L57.516 56.1558V66.9233ZM68.4996 68.2241V58.7573L71.878 55.939L74.6783 53.5L78.7433 56.8242L75.7262 59.3896L72.2032 56.4629V66.1826L75.4191 68.8926L77.5328 67.0859L78.129 67.6279L76.0153 69.4165L73.0524 72L68.4996 68.2241ZM80.5853 68.0796V58.4141L84.2889 55.3066L86.4027 53.5L90.9554 57.2397L84.2889 62.8584V66.0381L87.6854 68.8926L89.9437 66.9233L90.5399 67.4834L88.2816 69.4165L85.3187 72L80.5853 68.0796ZM84.2889 56.752V61.8647L87.3241 59.3174L84.2889 56.752ZM93.3214 69.5249V48.9111L97.025 45.8037V67.2666L99.6266 69.4526L96.6637 72.0361L95.8869 71.4038L93.3214 69.5249ZM101.83 68.0796V58.4141L105.534 55.3066L107.647 53.5L112.2 57.2397L105.534 62.8584V66.0381L108.93 68.8926L111.188 66.9233L111.785 67.4834L109.526 69.4165L106.563 72L101.83 68.0796ZM105.534 56.752V61.8647L108.569 59.3174L105.534 56.752ZM113.121 56.8242L116.264 54.2407L119.95 51.1333V53.5H123.87L119.986 56.8242H119.95V66.9233L122.913 69.4526L119.95 72.0361L116.264 68.9648V56.8242H113.121ZM36.0704 92.862C36.0704 89.8527 36.5021 86.9543 37.3654 84.167C38.2534 81.355 39.6348 78.8267 41.5094 76.582H44.5804C42.8538 78.9007 41.5464 81.4537 40.6584 84.241C39.7951 87.0283 39.3634 89.8897 39.3634 92.825C39.3634 95.6863 39.7951 98.4983 40.6584 101.261C41.5464 103.999 42.8414 106.527 44.5434 108.846H41.5094C39.6348 106.675 38.2534 104.221 37.3654 101.483C36.5021 98.7203 36.0704 95.8467 36.0704 92.862ZM48.266 103.181V79.9834L51.9696 76.9121V100.146L48.266 103.181ZM51.9696 87.0112L54.9686 84.5L58.6722 87.0112V100.146L54.9686 103.181V89.5405L51.9696 87.0112ZM62.7364 99.9648V90.0825L66.3317 87.0474L69.2946 84.5L72.9801 87.3906V98.7002L75.0216 100.453L72.3658 103L69.3668 100.489L66.4401 103.036L62.7364 99.9648ZM66.4401 97.9233L69.2946 100.344V89.5767L66.4401 87.1558V97.9233ZM76.3036 88.6372L80.0072 85.4937L81.7958 86.9751L84.7406 84.5L88.4442 87.6074V100.146L84.7406 103.181V89.5405L82.2294 87.3906L81.7597 87.8242V100.146L78.056 103.181V90.0825L76.3036 88.6372ZM94.9835 80.9048L102.897 87.5713V98.0859L96.9889 103.036L96.2121 102.404L92.5084 99.3325V90.1187L96.2121 87.0112L91.9484 83.4702L94.9835 80.9048ZM99.2111 99.8564V89.5405L96.2121 87.0112V97.3813L99.2111 99.8564ZM114.937 92.862C114.937 95.8467 114.493 98.7203 113.605 101.483C112.741 104.221 111.372 106.675 109.498 108.846H106.464C108.166 106.527 109.448 103.999 110.312 101.261C111.2 98.4983 111.644 95.6863 111.644 92.825C111.644 89.8897 111.2 87.0283 110.312 84.241C109.448 81.4537 108.153 78.9007 106.427 76.582H109.498C111.372 78.8267 112.741 81.355 113.605 84.167C114.493 86.9543 114.937 89.8527 114.937 92.862Z" fill="#341919"/>
</svg>
