<svg width="148" height="150" viewBox="0 0 148 150" fill="none" xmlns="http://www.w3.org/2000/svg">
<path d="M73.2 149.928C113.627 149.928 146.4 116.366 146.4 74.9642C146.4 33.5626 113.627 0 73.2 0C32.7728 0 0 33.5626 0 74.9642C0 116.366 32.7728 149.928 73.2 149.928Z" fill="#BEB79D"/>
<path d="M15.3967 87.1807V63.9111L19.1003 60.8037V71.0474L22.0271 68.5L25.7307 71.5713V73.125L22.1716 76.0879L26.5076 84.2178L26.905 83.8926L27.3567 84.2539L24.0686 87L23.617 86.6387L19.5881 78.3101L19.1003 78.6714V84.1455L15.3967 87.1807ZM19.1003 77.8945L22.0271 75.4194V73.6128L19.1003 71.1196V77.8945ZM29 83.0796V73.4141L32.7036 70.3066L34.8174 68.5L39.3701 72.2397L32.7036 77.8584V81.0381L36.1001 83.8926L38.3584 81.9233L38.9546 82.4834L36.6963 84.4165L33.7334 87L29 83.0796ZM32.7036 71.752V76.8647L35.7388 74.3174L32.7036 71.752ZM41.1941 71.2461L44.4641 68.5L46.596 70.3789V81.9233L49.5227 84.4165V71.4268L53.2263 68.3193V87L49.5227 90.0352V84.4888L46.596 87.0361L42.9104 83.9648V72.6372L41.1941 71.2461ZM43.7957 90.3604L46.8308 87.813L49.5227 90.0352L46.4514 92.5464L43.7957 90.3604ZM57.2906 83.2241V73.7573L60.669 70.939L63.4693 68.5L67.5342 71.8242L64.5171 74.3896L60.9942 71.4629V81.1826L64.21 83.8926L66.3238 82.0859L66.92 82.6279L64.8062 84.4165L61.8433 87L57.2906 83.2241ZM69.9544 87.1807V63.9834L73.658 60.9121V84.1455L69.9544 87.1807ZM73.658 71.0112L76.657 68.5L80.3606 71.0112V84.1455L76.657 87.1807V73.5405L73.658 71.0112ZM84.4249 83.9648V74.0825L88.0201 71.0474L90.983 68.5L94.6685 71.3906V82.7002L96.71 84.4526L94.0543 87L91.0552 84.4888L88.1285 87.0361L84.4249 83.9648ZM88.1285 81.9233L90.983 84.3442V73.5767L88.1285 71.1558V81.9233ZM98.3714 63.9111L101.696 61.0928L104.966 63.7666L101.659 66.6211L98.3714 63.9111ZM97.992 71.4268L101.623 68.3916L103.846 70.2705V82.4473L105.887 84.1455L102.472 87L100.25 85.1211L100.142 73.1973L97.992 71.4268ZM107.368 72.6372L111.071 69.4937L112.86 70.9751L115.805 68.5L119.508 71.6074V84.1455L115.805 87.1807V73.5405L113.294 71.3906L112.824 71.8242V84.1455L109.12 87.1807V74.0825L107.368 72.6372ZM121.332 82.8628L125.849 78.9424L123.374 76.8647L122.958 76.5215V72.9443L128.252 68.5L133.166 72.4927L134.214 71.6074L134.846 72.0952L130.221 76.124L133.437 78.7437V82.3389L130.763 84.5249L127.8 87L122.633 82.7905L121.929 83.4048L121.332 82.8628ZM126.373 74.8232L128.469 76.6118L130.221 75.0942L126.409 71.9326L126.373 74.8232ZM125.506 80.2612L129.986 83.8203V80.6045L127.475 78.563L125.506 80.2612Z" fill="#341919"/>
</svg>
