<svg width="150" height="150" viewBox="0 0 150 150" fill="none" xmlns="http://www.w3.org/2000/svg">
<path d="M75 149.928C116.421 149.928 150 116.366 150 74.9642C150 33.5626 116.421 0 75 0C33.5786 0 0 33.5626 0 74.9642C0 116.366 33.5786 149.928 75 149.928Z" fill="#BEB79D"/>
<path d="M28.7738 71.9648V52.0195L32.4774 48.9121V70.0137L35.4764 72.4888V61.5405L32.4774 59.0112L35.4764 56.5L39.18 59.5713V69.4175L32.5135 75.0361H32.4774L28.7738 71.9648ZM41.9435 60.6372L45.6471 57.4937L47.4356 59.0112L50.3805 56.5L53.235 58.8306L50.1998 61.3779L47.9054 59.4268L47.3995 59.8965V72.1455L43.6959 75.1807V62.0825L41.9435 60.6372ZM53.8124 71.9648V62.0825L57.4076 59.0474L60.3705 56.5L64.056 59.3906V70.7002L66.0975 72.4526L63.4418 75L60.4427 72.4888L57.516 75.0361L53.8124 71.9648ZM57.516 69.9233L60.3705 72.3442V61.5767L57.516 59.1558V69.9233ZM68.4996 71.2241V61.7573L71.878 58.939L74.6783 56.5L78.7433 59.8242L75.7262 62.3896L72.2032 59.4629V69.1826L75.4191 71.8926L77.5328 70.0859L78.129 70.6279L76.0153 72.4165L73.0524 75L68.4996 71.2241ZM80.5853 71.0796V61.4141L84.2889 58.3066L86.4027 56.5L90.9554 60.2397L84.2889 65.8584V69.0381L87.6854 71.8926L89.9437 69.9233L90.5399 70.4834L88.2816 72.4165L85.3187 75L80.5853 71.0796ZM84.2889 59.752V64.8647L87.3241 62.3174L84.2889 59.752ZM93.3214 72.5249V51.9111L97.025 48.8037V70.2666L99.6266 72.4526L96.6637 75.0361L95.8869 74.4038L93.3214 72.5249ZM101.83 71.0796V61.4141L105.534 58.3066L107.647 56.5L112.2 60.2397L105.534 65.8584V69.0381L108.93 71.8926L111.188 69.9233L111.785 70.4834L109.526 72.4165L106.563 75L101.83 71.0796ZM105.534 59.752V64.8647L108.569 62.3174L105.534 59.752ZM113.121 59.8242L116.264 57.2407L119.95 54.1333V56.5H123.87L119.986 59.8242H119.95V69.9233L122.913 72.4526L119.95 75.0361L116.264 71.9648V59.8242H113.121ZM47.6597 95.862C47.6597 92.8527 48.0913 89.9543 48.9547 87.167C49.8427 84.355 51.224 81.8267 53.0987 79.582H56.1697C54.443 81.9007 53.1357 84.4537 52.2477 87.241C51.3843 90.0283 50.9527 92.8897 50.9527 95.825C50.9527 98.6863 51.3843 101.498 52.2477 104.261C53.1357 106.999 54.4307 109.527 56.1327 111.846H53.0987C51.224 109.675 49.8427 107.221 48.9547 104.483C48.0913 101.72 47.6597 98.8467 47.6597 95.862ZM59.8552 103.525V82.9111L63.5588 79.8037V101.267L66.1604 103.453L63.1975 106.036L62.4206 105.404L59.8552 103.525ZM68.3638 102.08V92.4141L72.0674 89.3066L74.1812 87.5L78.7339 91.2397L72.0674 96.8584V100.038L75.4639 102.893L77.7222 100.923L78.3184 101.483L76.0601 103.417L73.0972 106L68.3638 102.08ZM72.0674 90.752V95.8647L75.1025 93.3174L72.0674 90.752ZM80.7385 102.965V93.1187L84.4422 90.0112V101.014L87.4412 103.489V92.5405L84.4422 90.0112L87.4412 87.5L91.1448 90.5713V106L84.4783 111.583L81.8225 109.396L84.8396 106.849L87.4412 109.035V103.561L84.4783 106.036H84.4422L80.7385 102.965ZM103.348 95.862C103.348 98.8467 102.904 101.72 102.016 104.483C101.152 107.221 99.7832 109.675 97.9086 111.846H94.8746C96.5766 109.527 97.8592 106.999 98.7226 104.261C99.6106 101.498 100.055 98.6863 100.055 95.825C100.055 92.8897 99.6106 90.0283 98.7226 87.241C97.8592 84.4537 96.5642 81.9007 94.8376 79.582H97.9086C99.7832 81.8267 101.152 84.355 102.016 87.167C102.904 89.9543 103.348 92.8527 103.348 95.862Z" fill="#341919"/>
</svg>
