<svg width="367" height="122" viewBox="0 0 367 122" fill="none" xmlns="http://www.w3.org/2000/svg">
<path d="M61 122C94.6894 122 122 94.6894 122 61C122 27.3106 94.6894 0 61 0C27.3106 0 0 27.3106 0 61C0 94.6894 27.3106 122 61 122Z" fill="#BEB79D"/>
<path d="M31.8641 49.5031L36.5971 45.4858L38.883 47.379L42.6462 44.216L47.3793 48.1871V64.2103L42.6462 68.089V50.6574L39.4371 47.9099L38.8368 48.4643V64.2103L34.1037 68.089V51.3501L31.8641 49.5031ZM51.3956 38.3517L55.6439 34.7499L59.8226 38.1669L55.5977 41.815L51.3956 38.3517ZM50.9108 47.9561L55.5515 44.0774L58.3911 46.4788V62.0399L61 64.2103L56.6365 67.858L53.7966 65.457L53.6584 50.2189L50.9108 47.9561ZM64.5546 63.0325V50.9346L68.8723 47.3328L72.4507 44.216L77.6454 48.4643L73.7898 51.7428L69.2877 48.0023V60.4236L73.3974 63.8869L76.0988 61.5782L76.8607 62.2709L74.1594 64.5564L70.3731 67.858L64.5546 63.0325ZM79.9995 62.848V50.4957L84.7326 46.5246L87.4339 44.216L93.252 48.9953L84.7326 56.1756V60.2391L89.0734 63.8869L91.9591 61.3703L92.7211 62.0861L89.835 64.5564L86.0486 67.858L79.9995 62.848ZM84.7326 48.3719V54.9058L88.6113 51.6504L84.7326 48.3719Z" fill="#341919"/>
<path d="M34.2899 73.0184L35.8232 71.7584V70.5864L37.5767 69.1058L39.0219 67.8544L40.3527 68.956L38.8721 70.2074L37.6298 69.1588V71.4674H39.1277L37.6298 72.7098V79.0989L35.8232 80.5969V73.0361L34.2899 73.0184ZM40.5191 79.0105V74.2081L42.3257 72.6925V78.059L43.7882 79.2661V73.9262L42.3257 72.6925L43.7882 71.4674L45.5948 72.9654V77.7681L42.3434 80.5088H42.3257L40.5191 79.0105ZM47.6648 73.4855L49.4713 71.9522L50.3437 72.6925L51.78 71.4674L53.1721 72.6041L51.6919 73.8468L50.5726 72.895L50.3261 73.1242V79.0989L48.5195 80.5792V74.1904L47.6648 73.4855ZM59.7706 79.0105V74.2081L61.5771 72.6925V78.059L63.0397 79.2661V73.9262L61.5771 72.6925L63.0397 71.4674L64.8462 72.9654V80.4911L61.5945 83.2141L60.2994 82.1478L61.771 80.9051L63.0397 81.9717V79.3014L61.5945 80.5088H61.5771L59.7706 79.0105ZM67.0043 72.8069L68.5199 71.5201L69.5862 72.4456V78.015L70.9787 79.1957V72.895L72.7849 71.3794V78.3936L73.7721 79.2487L72.4766 80.4911L71.0137 79.2661L69.5862 80.5088L67.7796 79.0105V73.4501L67.0043 72.8069ZM75.1191 72.8069L76.7142 71.4674L77.754 72.3839V78.015L79.1816 79.231V72.895L80.9881 71.3794V80.4911L79.1816 81.9717V79.2661L77.754 80.5088L75.9565 79.0105V73.4855L75.1191 72.8069ZM76.3882 82.1302L77.8685 80.8878L79.1816 81.9717L77.6837 83.1964L76.3882 82.1302ZM82.8817 78.4731L85.0849 76.5608L83.8775 75.5476L83.6747 75.3801V73.6353L86.2569 71.4674L88.6536 73.4151L89.1647 72.9831L89.4733 73.2209L87.2173 75.1863L88.7857 76.464V78.2175L87.4816 79.2837L86.0363 80.4911L83.5162 78.438L83.1726 78.7376L82.8817 78.4731ZM85.3404 74.5517L86.3626 75.4241L87.2173 74.6838L85.3578 73.1419L85.3404 74.5517ZM84.9174 77.2043L87.1026 78.9401V77.3714L85.8779 76.376L84.9174 77.2043Z" fill="black"/>
<path d="M150.768 31.6943L157.182 26.2861L163.422 31.417L157.078 36.8945L150.768 31.6943ZM149.347 46.3242L156.315 40.5L160.579 44.1055V81.2002L153.472 86.9897V49.7217L149.347 46.3242ZM168.378 68.4771V49.9297L175.485 43.9668L179.541 40.5L188.277 47.6763L175.485 58.458V64.5596L182.003 70.0371L186.336 66.2583L187.48 67.333L183.147 71.0425L177.461 76L168.378 68.4771ZM175.485 46.7402V56.5513L181.309 51.6631L175.485 46.7402ZM193.58 70.1064V45.9775L200.687 40.1533V66.3276L206.373 71.1118V45.9775L213.48 40.1533V66.3276L219.131 71.1118V45.9082L226.237 40.084V65.3569L213.48 76L206.442 71.1812L200.687 76L193.58 70.1064ZM234.036 68.4771V49.9297L241.143 43.9668L245.199 40.5L253.936 47.6763L241.143 58.458V64.5596L247.661 70.0371L251.994 66.2583L253.138 67.333L248.805 71.0425L243.119 76L234.036 68.4771ZM241.143 46.7402V56.5513L246.968 51.6631L241.143 46.7402ZM258.476 71.2505V31.6943L265.583 25.7314V66.917L270.575 71.1118L264.889 76.0693L263.399 74.856L258.476 71.2505ZM275.15 71.2505V31.6943L282.257 25.7314V66.917L287.249 71.1118L281.563 76.0693L280.073 74.856L275.15 71.2505ZM291.477 68.4771V49.9297L298.584 43.9668L302.64 40.5L311.376 47.6763L298.584 58.458V64.5596L305.102 70.0371L309.435 66.2583L310.579 67.333L306.246 71.0425L300.56 76L291.477 68.4771ZM298.584 46.7402V56.5513L304.408 51.6631L298.584 46.7402ZM314.877 48.439L321.983 42.4067L325.416 45.3188L331.066 40.5L336.544 44.9722L330.72 49.8604L326.317 46.1162L325.346 47.0176V70.5225L318.239 76.3467V51.2124L314.877 48.439ZM338.345 45.7695L344.62 40.5L348.711 44.1055V66.2583L354.327 71.0425V46.1162L361.434 40.1533V76L354.327 81.8242V71.1812L348.711 76.0693L341.639 70.1758V48.439L338.345 45.7695ZM343.338 82.4482L349.162 77.5601L354.327 81.8242L348.434 86.6431L343.338 82.4482Z" fill="#CCCCCC"/>
</svg>
