<svg width="150" height="150" viewBox="0 0 150 150" fill="none" xmlns="http://www.w3.org/2000/svg">
<path d="M75 149.928C116.421 149.928 150 116.366 150 74.9642C150 33.5626 116.421 0 75 0C33.5786 0 0 33.5626 0 74.9642C0 116.366 33.5786 149.928 75 149.928Z" fill="#BEB79D"/>
<path d="M24.6908 71.6372L28.3944 68.4937L30.1829 69.9751L33.1278 67.5L36.8314 70.6074V83.1455L33.1278 86.1807V72.5405L30.6165 70.3906L30.1468 70.8242V83.1455L26.4432 86.1807V73.0825L24.6908 71.6372ZM40.8956 82.0796V72.4141L44.5992 69.3066L46.713 67.5L51.2657 71.2397L44.5992 76.8584V80.0381L47.9957 82.8926L50.254 80.9233L50.8502 81.4834L48.5919 83.4165L45.629 86L40.8956 82.0796ZM44.5992 70.752V75.8647L47.6344 73.3174L44.5992 70.752ZM53.2704 82.2241V72.7573L56.6488 69.939L59.4491 67.5L63.514 70.8242L60.4969 73.3896L56.974 70.4629V80.1826L60.1898 82.8926L62.3036 81.0859L62.8998 81.6279L60.786 83.4165L57.8231 86L53.2704 82.2241ZM65.9342 86.1807V62.9111L69.6378 59.8037V70.0474L72.5646 67.5L76.2682 70.5713V72.125L72.7091 75.0879L77.045 83.2178L77.4425 82.8926L77.8942 83.2539L74.6061 86L74.1544 85.6387L70.1256 77.3101L69.6378 77.6714V83.1455L65.9342 86.1807ZM69.6378 76.8945L72.5646 74.4194V72.6128L69.6378 70.1196V76.8945ZM80.4769 83.5249V62.9111L84.1805 59.8037V81.2666L86.7821 83.4526L83.8192 86.0361L83.0424 85.4038L80.4769 83.5249ZM88.9855 82.9648V73.0825L92.5807 70.0474L95.5436 67.5L99.2291 70.3906V81.7002L101.271 83.4526L98.6149 86L95.6159 83.4888L92.6891 86.0361L88.9855 82.9648ZM92.6891 80.9233L95.5436 83.3442V72.5767L92.6891 70.1558V80.9233ZM103.673 82.2241V72.7573L107.051 69.939L109.851 67.5L113.916 70.8242L110.899 73.3896L107.376 70.4629V80.1826L110.592 82.8926L112.706 81.0859L113.302 81.6279L111.188 83.4165L108.225 86L103.673 82.2241ZM115.758 82.0796V72.4141L119.462 69.3066L121.576 67.5L126.129 71.2397L119.462 76.8584V80.0381L122.859 82.8926L125.117 80.9233L125.713 81.4834L123.455 83.4165L120.492 86L115.758 82.0796ZM119.462 70.752V75.8647L122.497 73.3174L119.462 70.752Z" fill="#341919"/>
</svg>
