<svg width="36" height="36" viewBox="0 0 36 36" fill="none" xmlns="http://www.w3.org/2000/svg">
<path d="M18 0C8.05921 0 0 8.05884 0 18C0 27.9412 8.05921 36 18 36C27.9408 36 36 27.9412 36 18C36 8.05884 27.9408 0 18 0ZM20.0712 23.9788C18.4062 23.9788 16.8403 23.0787 16.304 22.0567C16.304 22.0567 15.4084 25.6088 15.2202 26.2942C14.5525 28.7175 12.5884 31.1416 12.4356 31.3401C12.3291 31.4782 12.0938 31.4351 12.0695 31.2517C12.0279 30.9431 11.5263 27.8859 12.1163 25.3926C12.4113 24.1404 14.0987 16.9905 14.0987 16.9905C14.0987 16.9905 13.6074 16.0061 13.6074 14.5506C13.6074 12.2654 14.9318 10.5595 16.581 10.5595C17.9831 10.5595 18.66 11.6124 18.66 12.8746C18.66 14.2844 17.7628 16.3924 17.2999 18.3458C16.9128 19.9814 18.1193 21.3157 19.7324 21.3157C22.654 21.3157 24.6203 17.5636 24.6203 13.1173C24.6203 9.7386 22.3458 7.20847 18.2055 7.20847C13.5294 7.20847 10.6133 10.6965 10.6133 14.5933C10.6133 15.9361 11.0103 16.8845 11.6312 17.617C11.9159 17.954 11.9564 18.0895 11.8529 18.4762C11.7782 18.7601 11.6099 19.4429 11.5384 19.7129C11.4357 20.104 11.1197 20.2432 10.7657 20.0992C8.61275 19.2201 7.6088 16.8609 7.6088 14.2089C7.6088 9.82883 11.3023 4.5767 18.6287 4.5767C24.5157 4.5767 28.3905 8.8363 28.3905 13.4097C28.3908 19.4599 25.0273 23.9788 20.0712 23.9788Z" fill="black"/>
</svg>
