<svg width="150" height="150" viewBox="0 0 150 150" fill="none" xmlns="http://www.w3.org/2000/svg">
<path d="M75 149.928C116.421 149.928 150 116.366 150 74.9642C150 33.5626 116.421 0 75 0C33.5786 0 0 33.5626 0 74.9642C0 116.366 33.5786 149.928 75 149.928Z" fill="#BEB79D"/>
<path d="M43.5423 72.6372L47.2459 69.4937L49.0345 71.0112L51.9793 68.5L54.8338 70.8306L51.7987 73.3779L49.5042 71.4268L48.9984 71.8965V84.1455L45.2948 87.1807V74.0825L43.5423 72.6372ZM56.3326 63.9111L59.6568 61.0928L62.9268 63.7666L59.6207 66.6211L56.3326 63.9111ZM55.9532 71.4268L59.5846 68.3916L61.8067 70.2705V82.4473L63.8482 84.1455L60.4337 87L58.2115 85.1211L58.1031 73.1973L55.9532 71.4268ZM65.3289 72.6372L69.0326 69.4937L70.8211 70.9751L73.766 68.5L77.4696 71.6074V84.1455L73.766 87.1807V73.5405L71.2547 71.3906L70.785 71.8242V84.1455L67.0814 87.1807V74.0825L65.3289 72.6372ZM81.5338 83.9648V74.1187L85.2374 71.0112V82.0137L88.2364 84.4888V73.5405L85.2374 71.0112L88.2364 68.5L91.94 71.5713V87L85.2735 92.5825L82.6178 90.3965L85.6349 87.8491L88.2364 90.0352V84.561L85.2735 87.0361H85.2374L81.5338 83.9648ZM93.9447 82.8628L98.4613 78.9424L95.9862 76.8647L95.5707 76.5215V72.9443L100.864 68.5L105.778 72.4927L106.826 71.6074L107.458 72.0952L102.833 76.124L106.049 78.7437V82.3389L103.375 84.5249L100.412 87L95.2455 82.7905L94.5409 83.4048L93.9447 82.8628ZM98.9852 74.8232L101.081 76.6118L102.833 75.0942L99.0213 71.9326L98.9852 74.8232ZM98.118 80.2612L102.598 83.8203V80.6045L100.087 78.563L98.118 80.2612Z" fill="#341919"/>
</svg>
