<svg width="150" height="150" viewBox="0 0 150 150" fill="none" xmlns="http://www.w3.org/2000/svg">
<path d="M75 149.929C116.421 149.929 150 116.366 150 74.9643C150 33.5626 116.421 0 75 0C33.5786 0 0 33.5626 0 74.9643C0 116.366 33.5786 149.929 75 149.929Z" fill="#BEB79D"/>
<path d="M47.1553 64.8628L51.6719 60.9424L49.1968 58.8647L48.7812 58.5215V54.9443L54.0747 50.5L58.9888 54.4927L60.0366 53.6074L60.6689 54.0952L56.0439 58.124L59.2597 60.7437V64.3389L56.5859 66.5249L53.623 69L48.456 64.7905L47.7514 65.4048L47.1553 64.8628ZM52.1958 56.8232L54.2915 58.6118L56.0439 57.0942L52.2319 53.9326L52.1958 56.8232ZM51.3286 62.2612L55.8091 65.8203V62.6045L53.2978 60.563L51.3286 62.2612ZM63.2517 69.1807V45.9834L66.9553 42.9121V66.1455L63.2517 69.1807ZM66.9553 53.0112L69.9543 50.5L73.658 53.0112V66.1455L69.9543 69.1807V55.5405L66.9553 53.0112ZM77.7222 65.9648V56.1187L81.4258 53.0112V64.0137L84.4248 66.4888V55.5405L81.4258 53.0112L84.4248 50.5L88.1284 53.5713V63.4175L81.4619 69.0361H81.4258L77.7222 65.9648ZM92.1926 65.0796V55.4141L95.8963 52.3066L98.01 50.5L102.563 54.2397L95.8963 59.8584V63.0381L99.2927 65.8926L101.551 63.9233L102.147 64.4834L99.8889 66.4165L96.926 69L92.1926 65.0796ZM95.8963 53.752V58.8647L98.9314 56.3174L95.8963 53.752ZM37.5533 96.2241V86.7573L40.9317 83.939L43.732 81.5L47.797 84.8242L44.7799 87.3896L41.2569 84.4629V94.1826L44.4728 96.8926L46.5865 95.0859L47.1827 95.6279L45.0689 97.4165L42.1061 100L37.5533 96.2241ZM50.2171 100.181V76.9834L53.9208 73.9121V97.1455L50.2171 100.181ZM53.9208 84.0112L56.9198 81.5L60.6234 84.0112V97.1455L56.9198 100.181V86.5405L53.9208 84.0112ZM64.6876 96.9648V87.0825L68.2828 84.0474L71.2457 81.5L74.9313 84.3906V95.7002L76.9728 97.4526L74.317 100L71.318 97.4888L68.3912 100.036L64.6876 96.9648ZM68.3912 94.9233L71.2457 97.3442V86.5767L68.3912 84.1558V94.9233ZM78.6342 76.9111L81.9584 74.0928L85.2284 76.7666L81.9222 79.6211L78.6342 76.9111ZM78.2548 84.4268L81.8861 81.3916L84.1083 83.2705V95.4473L86.1498 97.1455L82.7352 100L80.5131 98.1211L80.4047 86.1973L78.2548 84.4268ZM87.6305 85.6372L91.3341 82.4937L93.1227 83.9751L96.0675 81.5L99.7711 84.6074V97.1455L96.0675 100.181V86.5405L93.5563 84.3906L93.0866 84.8242V97.1455L89.3829 100.181V87.0825L87.6305 85.6372ZM101.595 95.8628L106.112 91.9424L103.637 89.8647L103.221 89.5215V85.9443L108.515 81.5L113.429 85.4927L114.476 84.6074L115.109 85.0952L110.484 89.124L113.7 91.7437V95.3389L111.026 97.5249L108.063 100L102.896 95.7905L102.191 96.4048L101.595 95.8628ZM106.636 87.8232L108.731 89.6118L110.484 88.0942L106.672 84.9326L106.636 87.8232ZM105.768 93.2612L110.249 96.8203V93.6045L107.738 91.563L105.768 93.2612Z" fill="#341919"/>
</svg>
